<svg xmlns="http://www.w3.org/2000/svg" viewBox="0 0 100 100">
  <defs>
    <linearGradient id="bg" x1="0%" y1="0%" x2="100%" y2="100%">
      <stop offset="0%" stop-color="#34d399"/>
      <stop offset="100%" stop-color="#059669"/>
    </linearGradient>
  </defs>
  <circle cx="50" cy="50" r="48" fill="url(#bg)"/>
  <path d="M50 18 C30 18 18 35 18 50 C18 70 35 82 50 82 C55 72 58 60 58 50 C58 35 55 25 50 18Z" fill="white" opacity="0.9"/>
  <path d="M50 18 C70 18 82 35 82 50 C82 70 65 82 50 82" fill="none" stroke="white" stroke-width="3" opacity="0.4"/>
  <path d="M25 52 L40 52 L44 40 L50 62 L56 42 L60 52 L75 52" fill="none" stroke="#059669" stroke-width="3.5" stroke-linecap="round" stroke-linejoin="round"/>
</svg>
